<?xml version="1.0" encoding="iso-8859-1"?>
<!-- Generator: Adobe Illustrator 19.0.0, SVG Export Plug-In . SVG Version: 6.00 Build 0)  -->
<svg fill="#f1f1f1" version="1.1" id="Layer_1" xmlns="http://www.w3.org/2000/svg" xmlns:xlink="http://www.w3.org/1999/xlink" x="0px" y="0px"
	 viewBox="0 0 416.957 416.957" style="enable-background:new 0 0 416.957 416.957;" xml:space="preserve">
<g>
	<g>
		<g>
			<path d="M226.25,122.438c4.098-4.222,1.973-11.475-3.84-12.66c-5.722-1.168-10.679,4.805-8.389,10.22
				C216.044,124.91,222.49,126.093,226.25,122.438z"/>
			<path d="M214.021,119.998C213.831,119.547,214.211,120.458,214.021,119.998L214.021,119.998z"/>
			<path d="M413.177,159.359c-3.002-1.716-6.79-1.156-9.169,1.357c-5.498,5.811-12.037,10.399-19.441,13.639
				c-14.647,6.42-30.921,6.75-45.82,0.929c-14.899-5.821-26.64-17.096-33.057-31.746c-13.25-30.246,0.574-65.631,30.813-78.878
				c7.4-3.239,15.213-4.935,23.221-5.042c3.458-0.046,6.437-2.451,7.21-5.822c0.772-3.371-0.859-6.834-3.951-8.383
				c-27.931-13.99-60.352-14.835-88.953-2.315c-22.544,9.877-40.954,27.453-51.839,49.49c-1.834,3.714-0.311,8.212,3.403,10.046
				c3.715,1.836,8.213,0.31,10.046-3.403c9.323-18.876,25.095-33.932,44.407-42.393c16.316-7.144,34.087-9.208,51.208-6.251
				c-0.257,0.109-0.513,0.219-0.769,0.331c-37.817,16.567-55.105,60.816-38.537,98.637c8.025,18.32,22.706,32.418,41.337,39.699
				c18.634,7.281,38.983,6.868,57.298-1.16c0.259-0.114,0.518-0.229,0.775-0.344c-9.432,14.596-22.999,26.261-39.315,33.411
				c-3.519,1.54-7.126,2.855-10.781,3.931c-9.202-25.915-33.951-44.53-62.983-44.53c-8.241,0-16.416,1.536-24.063,4.489
				c-5.886-17.846-16.906-33.863-31.645-45.778c-17.405-14.072-39.341-21.821-61.765-21.821c-52.788,0-95.992,41.82-98.224,94.069
				c-16.799,4.977-31.924,15.035-43.06,28.741C6.934,255.76,0,275.31,0,295.312c0,48.173,39.191,87.365,87.365,87.365h227.864
				c39.366,0,71.393-32.026,71.393-71.392c0-27.879-16.477-53.288-41.521-64.851c-0.032-2.268-0.178-4.508-0.432-6.716
				c4.545-1.298,9.028-2.904,13.393-4.814c28.592-12.53,49.951-36.934,58.601-66.956
				C417.62,164.624,416.181,161.075,413.177,159.359z M371.622,311.285c0,31.095-25.298,56.392-56.393,56.392H87.365
				C47.463,367.677,15,335.214,15,295.312c0-16.568,5.741-32.758,16.166-45.589c10.281-12.654,24.653-21.553,40.47-25.058
				c3.48-0.771,5.937-3.884,5.877-7.448l-0.006-0.323c-0.007-0.375-0.014-0.75-0.014-1.127c0-45.939,37.375-83.314,83.314-83.314
				c19.278,0,37.375,6.393,52.334,18.486c14.537,11.752,24.806,28.201,28.914,46.315c0.523,2.307,2.104,4.231,4.265,5.193
				c2.162,0.962,4.649,0.848,6.713-0.308c7.686-4.302,16.416-6.576,25.247-6.576c28.578,0,51.828,23.25,51.828,51.829
				c0,1.022-0.042,2.13-0.131,3.486c-0.219,3.311,1.764,6.371,4.873,7.525C356.845,266.569,371.622,287.82,371.622,311.285z"/>
		</g>
	</g>
</g>
<g>
</g>
<g>
</g>
<g>
</g>
<g>
</g>
<g>
</g>
<g>
</g>
<g>
</g>
<g>
</g>
<g>
</g>
<g>
</g>
<g>
</g>
<g>
</g>
<g>
</g>
<g>
</g>
<g>
</g>
</svg>
