<?xml version="1.0" encoding="iso-8859-1"?>
<!-- Generator: Adobe Illustrator 19.0.0, SVG Export Plug-In . SVG Version: 6.00 Build 0)  -->
<svg fill="#f1f1f1" version="1.1" id="Layer_1" xmlns="http://www.w3.org/2000/svg" xmlns:xlink="http://www.w3.org/1999/xlink" x="0px" y="0px"
	 viewBox="0 0 458.941 458.941" style="enable-background:new 0 0 458.941 458.941;" xml:space="preserve">
<g>
	<g>
		<g>
			<path d="M244.244,130.349C244.053,129.899,244.434,130.809,244.244,130.349L244.244,130.349z"/>
			<path d="M245.864,132.789c4.66,4.524,12.825,1.301,12.81-5.3c-0.014-6.588-8.126-9.857-12.81-5.31
				c-2.081,2.144-2.797,5.389-1.62,8.17C244.621,131.262,245.177,132.081,245.864,132.789z"/>
			<path d="M440.698,211.035c-10.322-12.704-24.312-22.051-39.858-26.737c-2.274-48.6-42.526-87.441-91.679-87.441
				c-15.588,0-30.987,3.981-44.532,11.512c-3.62,2.013-4.923,6.58-2.911,10.2c2.014,3.621,6.579,4.924,10.2,2.911
				c11.322-6.295,24.2-9.622,37.243-9.622c42.336,0,76.78,34.443,76.78,76.78c0,0.438-0.009,0.875-0.019,1.313
				c-0.075,3.575,2.385,6.706,5.877,7.479c14.56,3.224,27.792,11.416,37.257,23.064c9.598,11.813,14.884,26.719,14.884,41.973
				c0,36.734-29.886,66.62-66.62,66.62h-1.951c7.109-11.096,11.251-24.267,11.251-38.395c0-27.877-16.479-53.287-41.52-64.851
				c-0.513-36.41-30.292-65.869-66.821-65.869c-8.242,0-16.417,1.536-24.063,4.488c-5.886-17.846-16.906-33.862-31.645-45.778
				C205.165,104.61,183.23,96.86,160.806,96.86c-52.788,0-95.993,41.82-98.224,94.069c-16.798,4.977-31.923,15.035-43.06,28.741
				C6.934,235.167,0,254.717,0,274.719c0,48.173,39.192,87.365,87.365,87.365H315.23c18.139,0,34.71-6.812,47.317-17.997h14.774
				c45.005,0,81.62-36.615,81.62-81.62C458.941,243.779,452.462,225.513,440.698,211.035z M315.231,347.083H87.365v0.001
				C47.463,347.084,15,314.621,15,274.719c0-16.568,5.741-32.758,16.166-45.589c10.281-12.654,24.653-21.553,40.47-25.057
				c3.479-0.771,5.936-3.884,5.876-7.448l-0.005-0.288c-0.007-0.387-0.014-0.773-0.014-1.162c0-45.94,37.375-83.314,83.314-83.314
				c19.278,0,37.375,6.393,52.334,18.486c14.537,11.752,24.806,28.201,28.915,46.315c0.523,2.307,2.104,4.231,4.265,5.193
				c2.16,0.961,4.648,0.848,6.713-0.308c7.685-4.302,16.415-6.576,25.247-6.576c28.578,0,51.828,23.25,51.828,51.828
				c0,1.025-0.042,2.132-0.131,3.484c-0.22,3.311,1.762,6.373,4.874,7.528c21.994,8.165,36.771,29.416,36.771,52.88
				C371.623,321.785,346.326,347.083,315.231,347.083z"/>
		</g>
	</g>
</g>
<g>
</g>
<g>
</g>
<g>
</g>
<g>
</g>
<g>
</g>
<g>
</g>
<g>
</g>
<g>
</g>
<g>
</g>
<g>
</g>
<g>
</g>
<g>
</g>
<g>
</g>
<g>
</g>
<g>
</g>
</svg>
