<?xml version="1.0" encoding="iso-8859-1"?>
<!-- Generator: Adobe Illustrator 19.0.0, SVG Export Plug-In . SVG Version: 6.00 Build 0)  -->
<svg fill="#f1f1f1" version="1.1" id="Layer_1" xmlns="http://www.w3.org/2000/svg" xmlns:xlink="http://www.w3.org/1999/xlink" x="0px" y="0px"
	 viewBox="0 0 472.02 472.02" style="enable-background:new 0 0 472.02 472.02;" xml:space="preserve">
<g>
	<g>
		<g>
			<path d="M243.173,88.158c3.009,2.921,7.954,2.89,10.825-0.225c2.707-2.938,2.539-7.548-0.214-10.384
				c-2.951-2.869-7.659-2.869-10.61,0c-2.084,2.145-2.798,5.386-1.621,8.169C241.93,86.631,242.486,87.45,243.173,88.158z"/>
			<path d="M241.553,85.718C241.363,85.268,241.743,86.178,241.553,85.718L241.553,85.718z"/>
			<path d="M440.709,125.078c-3.005-1.717-6.792-1.156-9.169,1.357c-5.499,5.811-12.038,10.399-19.442,13.64
				c-14.648,6.421-30.92,6.75-45.82,0.929c-14.899-5.822-26.639-17.096-33.057-31.746c-13.25-30.246,0.575-65.63,30.814-78.878
				c7.399-3.238,15.212-4.935,23.22-5.041c3.458-0.046,6.437-2.451,7.21-5.822c0.773-3.371-0.859-6.834-3.951-8.383
				c-27.93-13.991-60.352-14.835-88.953-2.315c-22.544,9.877-40.954,27.453-51.839,49.49c-1.834,3.714-0.311,8.211,3.403,10.046
				c3.715,1.835,8.212,0.311,10.046-3.403c9.323-18.876,25.095-33.932,44.408-42.393c16.317-7.144,34.086-9.209,51.208-6.25
				c-0.257,0.109-0.513,0.219-0.768,0.331c-18.319,8.025-32.417,22.706-39.695,41.337c-7.279,18.631-6.868,38.98,1.158,57.299
				c8.025,18.32,22.706,32.418,41.337,39.699c18.633,7.281,38.984,6.869,57.297-1.16c0.259-0.113,0.517-0.228,0.774-0.344
				c-9.432,14.597-22.999,26.261-39.314,33.412c-3.52,1.54-7.127,2.854-10.781,3.931c-9.202-25.915-33.952-44.53-62.983-44.53
				c-8.241,0-16.416,1.536-24.063,4.488c-5.886-17.846-16.906-33.862-31.645-45.778c-17.406-14.072-39.34-21.822-61.764-21.822
				c-52.788,0-95.993,41.82-98.224,94.069c-16.798,4.977-31.923,15.035-43.06,28.741c-12.59,15.497-19.524,35.046-19.524,55.048
				c0,48.173,39.192,87.365,87.365,87.365h227.865c39.366,0,71.392-32.026,71.392-71.392c0-27.879-16.476-53.288-41.521-64.852
				c-0.032-2.268-0.178-4.508-0.432-6.716c4.544-1.298,9.027-2.904,13.391-4.814c28.593-12.53,49.952-36.935,58.602-66.956
				C445.153,130.342,443.713,126.795,440.709,125.078z M399.154,277.004c0,31.094-25.297,56.392-56.392,56.392H114.897
				c-39.902,0-72.365-32.463-72.365-72.365c0-16.568,5.741-32.758,16.166-45.589c10.281-12.654,24.654-21.553,40.47-25.057
				c3.482-0.771,5.939-3.889,5.876-7.455l-0.003-0.193c-0.008-0.417-0.016-0.833-0.016-1.25c0-45.94,37.375-83.314,83.314-83.314
				c19.278,0,37.375,6.393,52.333,18.486c14.537,11.752,24.806,28.201,28.914,46.315c0.523,2.307,2.104,4.231,4.265,5.193
				c2.16,0.962,4.649,0.848,6.712-0.308c7.686-4.302,16.416-6.576,25.247-6.576c28.578,0,51.828,23.25,51.828,51.828
				c0,1.03-0.042,2.137-0.131,3.484c-0.22,3.311,1.762,6.373,4.874,7.528C384.376,232.288,399.154,253.539,399.154,277.004z"/>
			<path d="M91.99,366.594c-4.142,0-7.5,3.358-7.5,7.5v24.746c0,4.142,3.358,7.5,7.5,7.5c4.142,0,7.5-3.358,7.5-7.5v-24.746
				C99.49,369.952,96.132,366.594,91.99,366.594z"/>
			<path d="M91.99,414.739c-4.142,0-7.5,3.358-7.5,7.5v42.281c0,4.142,3.358,7.5,7.5,7.5c4.142,0,7.5-3.358,7.5-7.5v-42.281
				C99.49,418.097,96.132,414.739,91.99,414.739z"/>
			<path d="M124.201,366.594c-4.142,0-7.5,3.358-7.5,7.5v90.426c0,4.142,3.358,7.5,7.5,7.5c4.142,0,7.5-3.358,7.5-7.5v-90.426
				C131.701,369.952,128.343,366.594,124.201,366.594z"/>
			<path d="M156.421,366.594c-4.142,0-7.5,3.358-7.5,7.5v48.807c0,4.142,3.358,7.5,7.5,7.5c4.142,0,7.5-3.358,7.5-7.5v-48.807
				C163.921,369.952,160.563,366.594,156.421,366.594z"/>
			<path d="M156.421,437.979c-4.142,0-7.5,3.358-7.5,7.5v19.041c0,4.142,3.358,7.5,7.5,7.5c4.142,0,7.5-3.358,7.5-7.5v-19.041
				C163.921,441.337,160.563,437.979,156.421,437.979z"/>
			<path d="M188.632,366.594c-4.142,0-7.5,3.358-7.5,7.5v90.426c0,4.142,3.358,7.5,7.5,7.5c4.142,0,7.5-3.358,7.5-7.5v-90.426
				C196.132,369.952,192.774,366.594,188.632,366.594z"/>
			<path d="M253.054,444.676c-4.142,0-7.5,3.358-7.5,7.5v12.343c0,4.142,3.358,7.5,7.5,7.5c4.142,0,7.5-3.358,7.5-7.5v-12.343
				C260.554,448.034,257.196,444.676,253.054,444.676z"/>
			<path d="M253.054,366.594c-4.142,0-7.5,3.358-7.5,7.5v54.883c0,4.142,3.358,7.5,7.5,7.5c4.142,0,7.5-3.358,7.5-7.5v-54.883
				C260.554,369.952,257.196,366.594,253.054,366.594z"/>
			<path d="M220.843,366.594c-4.142,0-7.5,3.358-7.5,7.5v10.483c0,4.142,3.358,7.5,7.5,7.5c4.142,0,7.5-3.358,7.5-7.5v-10.483
				C228.343,369.952,224.985,366.594,220.843,366.594z"/>
			<path d="M220.843,402.946c-4.142,0-7.5,3.358-7.5,7.5v54.073c0,4.142,3.358,7.5,7.5,7.5c4.142,0,7.5-3.358,7.5-7.5v-54.073
				C228.343,406.304,224.985,402.946,220.843,402.946z"/>
			<path d="M285.265,366.594c-4.142,0-7.5,3.358-7.5,7.5v41.623c0,4.142,3.358,7.5,7.5,7.5c4.142,0,7.5-3.358,7.5-7.5v-41.623
				C292.765,369.952,289.407,366.594,285.265,366.594z"/>
			<path d="M285.265,430.877c-4.142,0-7.5,3.358-7.5,7.5v26.143c0,4.142,3.358,7.5,7.5,7.5c4.142,0,7.5-3.358,7.5-7.5v-26.143
				C292.765,434.235,289.407,430.877,285.265,430.877z"/>
			<path d="M317.485,366.594c-4.142,0-7.5,3.358-7.5,7.5v13.93c0,4.142,3.358,7.5,7.5,7.5c4.142,0,7.5-3.358,7.5-7.5v-13.93
				C324.985,369.952,321.627,366.594,317.485,366.594z"/>
			<path d="M317.485,405.403c-4.142,0-7.5,3.358-7.5,7.5v51.617c0,4.142,3.358,7.5,7.5,7.5c4.142,0,7.5-3.358,7.5-7.5v-51.617
				C324.985,408.761,321.627,405.403,317.485,405.403z"/>
			<path d="M349.696,366.594c-4.142,0-7.5,3.358-7.5,7.5v90.426c0,4.142,3.358,7.5,7.5,7.5c4.142,0,7.5-3.358,7.5-7.5v-90.426
				C357.196,369.952,353.838,366.594,349.696,366.594z"/>
		</g>
	</g>
</g>
<g>
</g>
<g>
</g>
<g>
</g>
<g>
</g>
<g>
</g>
<g>
</g>
<g>
</g>
<g>
</g>
<g>
</g>
<g>
</g>
<g>
</g>
<g>
</g>
<g>
</g>
<g>
</g>
<g>
</g>
</svg>
