<?xml version="1.0" encoding="iso-8859-1"?>
<!-- Generator: Adobe Illustrator 19.0.0, SVG Export Plug-In . SVG Version: 6.00 Build 0)  -->
<svg fill="#f1f1f1" version="1.1" id="Layer_1" xmlns="http://www.w3.org/2000/svg" xmlns:xlink="http://www.w3.org/1999/xlink" x="0px" y="0px"
	 viewBox="0 0 395.492 395.492" style="enable-background:new 0 0 395.492 395.492;" xml:space="preserve">
<g>
	<g>
		<g>
			<path d="M349.537,128.98c-0.513-36.41-30.292-65.869-66.821-65.869c-8.242,0-16.417,1.536-24.063,4.488
				c-5.886-17.846-16.906-33.862-31.645-45.778C209.602,7.75,187.667,0,165.243,0c-52.788,0-95.992,41.82-98.224,94.069
				c-16.798,4.977-31.923,15.035-43.06,28.741c-12.59,15.496-19.524,35.046-19.524,55.048c0,48.173,39.191,87.365,87.365,87.365
				h227.865c39.366,0,71.392-32.026,71.392-71.392C391.057,165.955,374.579,140.545,349.537,128.98z M319.665,250.224H91.801
				c-39.902,0-72.365-32.463-72.365-72.365c0-16.568,5.741-32.758,16.166-45.589c10.281-12.654,24.653-21.553,40.47-25.057
				c3.479-0.771,5.936-3.884,5.876-7.448l-0.005-0.287c-0.007-0.387-0.014-0.774-0.014-1.163c0-45.94,37.375-83.314,83.314-83.314
				c19.278,0,37.375,6.393,52.334,18.486c14.537,11.752,24.806,28.201,28.914,46.315c0.523,2.307,2.104,4.231,4.265,5.193
				c2.162,0.963,4.65,0.848,6.712-0.308c7.686-4.302,16.416-6.576,25.247-6.576c28.578,0,51.828,23.25,51.828,51.828
				c0,1.025-0.042,2.132-0.131,3.484c-0.22,3.311,1.762,6.373,4.873,7.528c21.994,8.165,36.771,29.416,36.771,52.88
				C376.057,224.926,350.76,250.224,319.665,250.224z"/>
			<path d="M68.894,275.38c-4.142,0-7.5,3.358-7.5,7.5v24.746c0,4.142,3.358,7.5,7.5,7.5c4.142,0,7.5-3.358,7.5-7.5V282.88
				C76.394,278.738,73.036,275.38,68.894,275.38z"/>
			<path d="M68.894,323.525c-4.142,0-7.5,3.358-7.5,7.5v56.966c0,4.142,3.358,7.5,7.5,7.5c4.142,0,7.5-3.358,7.5-7.5v-56.966
				C76.394,326.883,73.036,323.525,68.894,323.525z"/>
			<path d="M101.105,275.38c-4.142,0-7.5,3.358-7.5,7.5v105.111c0,4.142,3.358,7.5,7.5,7.5c4.142,0,7.5-3.358,7.5-7.5V282.88
				C108.605,278.738,105.247,275.38,101.105,275.38z"/>
			<path d="M133.324,275.38c-4.142,0-7.5,3.358-7.5,7.5v48.807c0,4.142,3.358,7.5,7.5,7.5c4.142,0,7.5-3.358,7.5-7.5V282.88
				C140.824,278.738,137.467,275.38,133.324,275.38z"/>
			<path d="M133.324,346.766c-4.142,0-7.5,3.358-7.5,7.5v33.726c0,4.142,3.358,7.5,7.5,7.5c4.142,0,7.5-3.358,7.5-7.5v-33.726
				C140.824,350.124,137.467,346.766,133.324,346.766z"/>
			<path d="M165.535,275.38c-4.142,0-7.5,3.358-7.5,7.5v105.111c0,4.142,3.358,7.5,7.5,7.5c4.142,0,7.5-3.358,7.5-7.5V282.88
				C173.035,278.738,169.678,275.38,165.535,275.38z"/>
			<path d="M229.958,353.463c-4.142,0-7.5,3.358-7.5,7.5v27.028c0,4.142,3.358,7.5,7.5,7.5c4.142,0,7.5-3.358,7.5-7.5v-27.028
				C237.458,356.821,234.1,353.463,229.958,353.463z"/>
			<path d="M229.958,275.38c-4.142,0-7.5,3.358-7.5,7.5v54.883c0,4.142,3.358,7.5,7.5,7.5c4.142,0,7.5-3.358,7.5-7.5V282.88
				C237.458,278.738,234.1,275.38,229.958,275.38z"/>
			<path d="M197.747,275.38c-4.142,0-7.5,3.358-7.5,7.5v10.483c0,4.142,3.358,7.5,7.5,7.5c4.142,0,7.5-3.358,7.5-7.5V282.88
				C205.247,278.738,201.889,275.38,197.747,275.38z"/>
			<path d="M197.747,311.733c-4.142,0-7.5,3.358-7.5,7.5v68.758c0,4.142,3.358,7.5,7.5,7.5c4.142,0,7.5-3.358,7.5-7.5v-68.758
				C205.247,315.091,201.889,311.733,197.747,311.733z"/>
			<path d="M262.169,275.38c-4.142,0-7.5,3.358-7.5,7.5v41.623c0,4.142,3.358,7.5,7.5,7.5c4.142,0,7.5-3.358,7.5-7.5V282.88
				C269.669,278.738,266.311,275.38,262.169,275.38z"/>
			<path d="M262.169,339.663c-4.142,0-7.5,3.358-7.5,7.5v40.828c0,4.142,3.358,7.5,7.5,7.5c4.142,0,7.5-3.358,7.5-7.5v-40.828
				C269.669,343.021,266.311,339.663,262.169,339.663z"/>
			<path d="M294.388,275.38c-4.142,0-7.5,3.358-7.5,7.5v75.865c0,4.142,3.358,7.5,7.5,7.5c4.142,0,7.5-3.358,7.5-7.5V282.88
				C301.888,278.738,298.531,275.38,294.388,275.38z"/>
			<path d="M294.388,376.125c-4.142,0-7.5,3.358-7.5,7.5v4.366c0,4.142,3.358,7.5,7.5,7.5c4.142,0,7.5-3.358,7.5-7.5v-4.366
				C301.888,379.483,298.531,376.125,294.388,376.125z"/>
			<path d="M326.599,275.38c-4.142,0-7.5,3.358-7.5,7.5v105.111c0,4.142,3.358,7.5,7.5,7.5c4.142,0,7.5-3.358,7.5-7.5V282.88
				C334.099,278.738,330.741,275.38,326.599,275.38z"/>
		</g>
	</g>
</g>
<g>
</g>
<g>
</g>
<g>
</g>
<g>
</g>
<g>
</g>
<g>
</g>
<g>
</g>
<g>
</g>
<g>
</g>
<g>
</g>
<g>
</g>
<g>
</g>
<g>
</g>
<g>
</g>
<g>
</g>
</svg>
